<svg width="180" height="48" viewBox="0 0 180 48" fill="none" xmlns="http://www.w3.org/2000/svg">
<path d="M1.9209 19.6936C1.9209 13.5966 6.86347 8.65405 12.9604 8.65405C19.0574 8.65405 24 13.5966 24 19.6936V40.6541H1.9209V19.6936Z" fill="#E0DFD5" stroke="#B76E79" stroke-width="2"/>
<path d="M4.80594 39.8806V40.2482H5.17358H20.9215H21.2891V39.8806V35.112C21.2891 34.5075 20.8073 34.0132 20.203 33.9978L5.94901 33.6337C5.32248 33.6177 4.80594 34.1212 4.80594 34.748V39.8806Z" fill="#B76E79" stroke="#B76E79" stroke-width="0.735294"/>
<path d="M6.09898 32.808L5.73133 32.8089L5.73247 33.1766C5.73418 33.7287 6.18226 34.1757 6.73445 34.1761L19.6413 34.185C20.2193 34.1854 20.6874 33.7162 20.6856 33.1382L20.6845 32.7706L20.3168 32.7715L6.09898 32.808Z" fill="#E0DFD5" stroke="#E0DFD5" stroke-width="0.735294"/>
<path d="M7.68607 23.4851C11.2844 18.8746 9.73658 15.1219 9.74092 15.1174C9.66463 14.9295 9.76814 14.7202 9.97208 14.6499C10.0749 14.6144 10.1892 14.6201 10.2873 14.6656C16.7816 17.5293 19.5763 21.2261 20.1115 24.5684C20.3242 25.867 20.1912 27.1937 19.7239 28.4344C19.2957 29.5793 18.5825 30.6157 17.6414 31.4608C15.8311 33.0719 13.3012 33.8146 10.8044 33.0617C10.1657 32.8696 9.56298 32.5879 9.01757 32.2264C7.92347 31.5028 7.09355 30.4901 6.63763 29.3223C6.1539 28.0733 6.13851 26.711 6.59397 25.453C6.8455 24.749 7.21393 24.0851 7.68607 23.4851Z" fill="#B76E79"/>
<path d="M10.4096 26.5619C13.558 23.3899 12.8737 20.5955 12.8774 20.5924C12.844 20.4525 12.9435 20.3057 13.0996 20.2644C13.1784 20.2436 13.2606 20.2532 13.3265 20.2908C17.7023 22.6755 19.2975 25.4885 19.2952 27.9373C19.2979 28.8889 19.0464 29.8445 18.5626 30.7219C18.1183 31.5316 17.4799 32.2493 16.6986 32.8173C15.1974 33.8995 13.2757 34.3178 11.5527 33.6534C11.1119 33.4838 10.7076 33.2509 10.3543 32.9629C9.64525 32.3863 9.16159 31.6127 8.96732 30.7443C8.76235 29.8158 8.91031 28.8273 9.3876 27.9369C9.65228 27.4383 9.99704 26.9745 10.4096 26.5619Z" fill="#E0DFD5"/>
<path d="M56.8145 22.7451C56.8145 23.0745 56.7786 23.4613 56.707 23.9053C56.6426 24.3493 56.5208 24.8434 56.3418 25.3877C56.1628 25.932 55.9229 26.5192 55.6221 27.1494C55.3213 27.7796 54.9417 28.4456 54.4834 29.1475C54.154 29.6488 53.8031 30.1536 53.4307 30.6621C53.0583 31.1634 52.6895 31.679 52.3242 32.209C51.959 32.7389 51.6081 33.2868 51.2715 33.8525C50.9349 34.4111 50.6413 34.9984 50.3906 35.6143L48.2314 37.8379C48.2458 37.7233 48.2565 37.6087 48.2637 37.4941C48.278 37.3796 48.2852 37.265 48.2852 37.1504C48.2852 36.7279 48.2458 36.3125 48.167 35.9043C48.0954 35.4961 48.0166 35.1273 47.9307 34.7979C47.8232 34.4111 47.7051 34.0459 47.5762 33.7021C47.39 33.2438 47.1644 32.7533 46.8994 32.2305C46.6344 31.7005 46.3587 31.1527 46.0723 30.5869C45.7858 30.014 45.5029 29.4303 45.2236 28.8359C44.9443 28.2415 44.6937 27.6543 44.4717 27.0742C44.2855 27.4036 44.0993 27.7116 43.9131 27.998C43.734 28.2845 43.5729 28.5352 43.4297 28.75C43.2578 29.0007 43.0931 29.237 42.9355 29.459C42.3841 30.2396 41.9043 31.0094 41.4961 31.7686C41.3242 32.0908 41.1559 32.431 40.9912 32.7891C40.8337 33.14 40.6976 33.4909 40.583 33.8418C40.4684 34.1927 40.3825 34.5365 40.3252 34.873C40.2751 35.2096 40.2715 35.5212 40.3145 35.8076L38.209 37.8379C38.1875 37.1576 38.123 36.445 38.0156 35.7002C37.9154 34.9554 37.7829 34.1999 37.6182 33.4336C37.4535 32.6602 37.2637 31.8903 37.0488 31.124C36.8411 30.3506 36.6191 29.5951 36.3828 28.8574C36.1465 28.1126 35.903 27.4001 35.6523 26.7197C35.4089 26.0394 35.1725 25.402 34.9434 24.8076C34.7858 24.4424 34.5996 24.1165 34.3848 23.8301C34.2917 23.7083 34.1878 23.5902 34.0732 23.4756C33.9658 23.3538 33.8441 23.25 33.708 23.1641C33.5719 23.071 33.4287 22.9958 33.2783 22.9385C33.1279 22.8812 32.9668 22.8525 32.7949 22.8525C32.6087 22.8525 32.4118 22.8883 32.2041 22.96C31.9964 23.0316 31.7887 23.1569 31.5811 23.3359C31.8031 23.1283 32.0609 22.8848 32.3545 22.6055C32.6553 22.3262 32.9668 22.0612 33.2891 21.8105C33.6185 21.5599 33.9479 21.3486 34.2773 21.1768C34.6139 21.0049 34.9326 20.9189 35.2334 20.9189C35.4626 20.9189 35.6882 20.9727 35.9102 21.0801C36.1393 21.1803 36.3542 21.3522 36.5547 21.5957C36.6836 21.7604 36.8447 22.0433 37.0381 22.4443C37.2386 22.8454 37.4535 23.3324 37.6826 23.9053C37.9118 24.471 38.1481 25.1084 38.3916 25.8174C38.6351 26.5192 38.8678 27.2533 39.0898 28.0195C39.3118 28.7858 39.5124 29.57 39.6914 30.3721C39.8776 31.167 40.028 31.9404 40.1426 32.6924C40.5293 31.9834 40.9017 31.3138 41.2598 30.6836C41.6178 30.0462 41.9544 29.4339 42.2695 28.8467C42.5918 28.2594 42.8926 27.6865 43.1719 27.1279C43.4583 26.5622 43.7233 25.9964 43.9668 25.4307C43.9095 25.1657 43.8665 24.9115 43.8379 24.668C43.8092 24.4245 43.7949 24.1774 43.7949 23.9268C43.7949 23.4827 43.8594 23.0602 43.9883 22.6592L46.6738 20.5C46.5664 20.8652 46.4912 21.2197 46.4482 21.5635C46.4053 21.9001 46.3838 22.2044 46.3838 22.4766C46.3838 22.9635 46.4697 23.5042 46.6416 24.0986C46.8206 24.693 47.0462 25.3197 47.3184 25.9785C47.5977 26.6302 47.8984 27.3034 48.2207 27.998C48.5501 28.6855 48.8652 29.373 49.166 30.0605C49.474 30.7409 49.7461 31.4033 49.9824 32.0479C50.2188 32.6924 50.3835 33.2939 50.4766 33.8525C50.6484 33.5732 50.8132 33.3047 50.9707 33.0469C51.1354 32.7891 51.2786 32.5563 51.4004 32.3486C51.5436 32.1123 51.6833 31.8867 51.8193 31.6719C52.1631 31.0918 52.4925 30.4902 52.8076 29.8672C53.1227 29.2441 53.402 28.6283 53.6455 28.0195C53.8962 27.4036 54.0931 26.8128 54.2363 26.2471C54.3867 25.6813 54.4619 25.1657 54.4619 24.7002C54.4619 24.4854 54.4333 24.2705 54.376 24.0557C54.3187 23.8337 54.2327 23.6331 54.1182 23.4541C54.0107 23.2751 53.8711 23.1318 53.6992 23.0244C53.5273 22.9098 53.3268 22.8525 53.0977 22.8525C52.9759 22.8525 52.8398 22.8776 52.6895 22.9277C52.5462 22.9707 52.3958 23.0423 52.2383 23.1426C52.4674 22.9277 52.7074 22.6986 52.958 22.4551C53.2087 22.2044 53.4701 21.9753 53.7422 21.7676C54.0143 21.5527 54.2936 21.3773 54.5801 21.2412C54.8665 21.098 55.1637 21.0264 55.4717 21.0264C55.7295 21.0264 55.9443 21.0765 56.1162 21.1768C56.2881 21.277 56.4242 21.4095 56.5244 21.5742C56.6318 21.7318 56.707 21.9144 56.75 22.1221C56.793 22.3226 56.8145 22.5303 56.8145 22.7451ZM66.8477 35.5928C66.4251 35.8792 66.0098 36.1442 65.6016 36.3877C65.1934 36.624 64.7995 36.8317 64.4199 37.0107C64.0475 37.1898 63.693 37.333 63.3564 37.4404C63.027 37.555 62.7227 37.6266 62.4434 37.6553C62.1641 37.6839 61.917 37.6947 61.7021 37.6875C61.4945 37.6875 61.319 37.641 61.1758 37.5479C61.0326 37.4548 60.9251 37.3079 60.8535 37.1074C60.7819 36.9069 60.7461 36.6276 60.7461 36.2695C60.7461 36.0905 60.7461 35.7826 60.7461 35.3457C60.7533 34.9017 60.7568 34.3753 60.7568 33.7666C60.764 33.1507 60.7712 32.4811 60.7783 31.7578C60.7855 31.0273 60.7926 30.2897 60.7998 29.5449C60.807 28.8001 60.8141 28.0732 60.8213 27.3643C60.8285 26.6553 60.8356 26.0107 60.8428 25.4307C60.8499 24.8506 60.8571 24.3636 60.8643 23.9697C60.8714 23.5758 60.8786 23.3216 60.8857 23.207C60.8929 22.9564 60.7855 22.7809 60.5635 22.6807C60.3486 22.5732 60.0801 22.5195 59.7578 22.5195C59.4928 22.5195 59.2171 22.5446 58.9307 22.5947C58.6514 22.6449 58.3792 22.7021 58.1143 22.7666C58.4795 22.5231 58.8376 22.3011 59.1885 22.1006C59.5465 21.8929 59.9046 21.7139 60.2627 21.5635C60.6279 21.4131 60.9967 21.2985 61.3691 21.2197C61.7415 21.1338 62.1283 21.0908 62.5293 21.0908C62.6868 21.0908 62.8337 21.1016 62.9697 21.123C63.113 21.1374 63.2347 21.166 63.335 21.209C63.4424 21.2448 63.5247 21.2949 63.582 21.3594C63.6465 21.4238 63.6787 21.5026 63.6787 21.5957C63.6787 21.875 63.6751 22.5518 63.668 23.626C63.668 24.0843 63.6644 24.6536 63.6572 25.334C63.6572 26.0143 63.6536 26.8379 63.6465 27.8047C63.6465 28.7643 63.6429 29.8815 63.6357 31.1562C63.6357 32.431 63.6357 33.8883 63.6357 35.5283C64.0225 35.6071 64.3734 35.6608 64.6885 35.6895C65.0107 35.7109 65.2972 35.7217 65.5479 35.7217C65.7555 35.7217 65.9382 35.7145 66.0957 35.7002C66.2604 35.6859 66.4001 35.6715 66.5146 35.6572C66.6436 35.6357 66.7546 35.6143 66.8477 35.5928ZM83.1543 34.9805C82.832 35.3027 82.4811 35.5892 82.1016 35.8398C81.722 36.0905 81.3353 36.3125 80.9414 36.5059C80.5475 36.6921 80.1501 36.8532 79.749 36.9893C79.3551 37.1182 78.9756 37.2292 78.6104 37.3223C77.751 37.5371 76.888 37.6732 76.0215 37.7305C74.7969 37.7161 73.6904 37.5299 72.7021 37.1719C71.7139 36.821 70.8724 36.3232 70.1777 35.6787C69.4831 35.027 68.9495 34.2393 68.5771 33.3154C68.2048 32.3844 68.0186 31.3389 68.0186 30.1787C68.0186 29.2262 68.1904 28.3418 68.5342 27.5254C68.8851 26.709 69.3542 25.9678 69.9414 25.3018C70.5286 24.6286 71.209 24.0378 71.9824 23.5293C72.7559 23.0137 73.5687 22.5804 74.4209 22.2295C75.2731 21.8786 76.1361 21.6136 77.0098 21.4346C77.8906 21.2484 78.7285 21.1553 79.5234 21.1553C79.7598 21.1553 80.014 21.1624 80.2861 21.1768C80.5654 21.1839 80.8376 21.2018 81.1025 21.2305C81.3747 21.2591 81.6289 21.3021 81.8652 21.3594C82.1087 21.4095 82.3092 21.4811 82.4668 21.5742C82.6315 21.6673 82.7461 21.7819 82.8105 21.918C82.875 22.0469 82.8643 22.2044 82.7783 22.3906C82.6709 22.4551 82.4954 22.5697 82.252 22.7344C82.0371 22.8776 81.7327 23.0745 81.3389 23.3252C80.9521 23.5758 80.4329 23.9089 79.7812 24.3242C79.9674 24.2025 80.1035 24.0879 80.1895 23.9805C80.2754 23.873 80.3184 23.7692 80.3184 23.6689C80.3184 23.5114 80.2467 23.3717 80.1035 23.25C79.9674 23.1283 79.792 23.0244 79.5771 22.9385C79.3623 22.8525 79.1224 22.7845 78.8574 22.7344C78.5924 22.6771 78.3382 22.6341 78.0947 22.6055C77.8512 22.5697 77.6292 22.5482 77.4287 22.541C77.2282 22.5267 77.0814 22.5195 76.9883 22.5195C74.8971 22.5195 73.318 23.0531 72.251 24.1201C71.1839 25.1872 70.6504 26.7663 70.6504 28.8574C70.6504 29.9603 70.8294 30.945 71.1875 31.8115C71.5456 32.6781 72.0397 33.4229 72.6699 34.0459C73.3001 34.6618 74.0485 35.1523 74.915 35.5176C75.7816 35.8828 76.7233 36.112 77.7402 36.2051C78.306 36.2409 78.8932 36.2194 79.502 36.1406C80.0247 36.0762 80.6048 35.958 81.2422 35.7861C81.8867 35.6143 82.5241 35.3457 83.1543 34.9805ZM103.801 35.4424C103.257 35.9007 102.773 36.2588 102.351 36.5166C101.935 36.7744 101.577 36.9678 101.276 37.0967C100.933 37.2471 100.632 37.3402 100.374 37.376C100.016 37.4548 99.6185 37.4404 99.1816 37.333C98.752 37.2327 98.2972 37.0645 97.8174 36.8281C97.3447 36.5918 96.8613 36.3018 96.3672 35.958C95.873 35.6143 95.3861 35.249 94.9062 34.8623C94.4264 34.4684 93.9609 34.0638 93.5098 33.6484C93.0658 33.2331 92.654 32.8356 92.2744 32.4561C91.902 32.0765 91.569 31.7292 91.2754 31.4141C90.9889 31.0918 90.7633 30.8268 90.5986 30.6191C90.4554 30.4401 90.3408 30.2933 90.2549 30.1787C90.1761 30.057 90.1367 29.9388 90.1367 29.8242C90.1367 29.7168 90.1868 29.5951 90.2871 29.459C90.3874 29.3158 90.5592 29.1296 90.8027 28.9004C90.9316 28.7786 91.0999 28.6175 91.3076 28.417C91.5153 28.2093 91.7445 27.9766 91.9951 27.7188C92.2529 27.4609 92.5215 27.1852 92.8008 26.8916C93.0872 26.5908 93.3665 26.2865 93.6387 25.9785C93.918 25.6706 94.1829 25.3626 94.4336 25.0547C94.6914 24.7467 94.9134 24.4567 95.0996 24.1846C95.293 23.9053 95.4469 23.6546 95.5615 23.4326C95.6761 23.2035 95.7334 23.0101 95.7334 22.8525C95.7334 22.6449 95.5114 22.541 95.0674 22.541C94.8955 22.541 94.7308 22.5374 94.5732 22.5303C94.4372 22.5303 94.2975 22.5303 94.1543 22.5303C94.0182 22.5231 93.9108 22.5267 93.832 22.541C94.2044 22.3262 94.5518 22.1257 94.874 21.9395C95.2035 21.7461 95.5221 21.5814 95.8301 21.4453C96.1452 21.3021 96.4603 21.1911 96.7754 21.1123C97.0905 21.0264 97.4235 20.9834 97.7744 20.9834C97.932 20.9834 98.0895 20.9906 98.2471 21.0049C98.4118 21.012 98.5837 21.0335 98.7627 21.0693C98.4333 21.6494 98.0967 22.1758 97.7529 22.6484C97.4163 23.1139 97.0762 23.5436 96.7324 23.9375C96.3958 24.3314 96.0592 24.693 95.7227 25.0225C95.3932 25.3519 95.0674 25.667 94.7451 25.9678C94.4229 26.2614 94.1113 26.5479 93.8105 26.8271C93.5098 27.1064 93.2233 27.3965 92.9512 27.6973C92.8223 27.8262 92.765 27.9801 92.7793 28.1592C92.8008 28.3382 92.9333 28.5638 93.1768 28.8359C93.5563 29.2585 93.9753 29.7204 94.4336 30.2217C94.8991 30.7158 95.3932 31.2135 95.916 31.7148C96.446 32.2161 96.9974 32.7031 97.5703 33.1758C98.1504 33.6484 98.7412 34.0674 99.3428 34.4326C99.9443 34.7979 100.553 35.0915 101.169 35.3135C101.792 35.5283 102.411 35.6357 103.027 35.6357C103.35 35.6357 103.607 35.5713 103.801 35.4424ZM92.5215 35.3027C92.099 35.5892 91.6836 35.8542 91.2754 36.0977C90.8672 36.3411 90.4733 36.556 90.0938 36.7422C89.7214 36.9212 89.3669 37.068 89.0303 37.1826C88.7008 37.2972 88.3965 37.3688 88.1172 37.3975C87.8379 37.4189 87.5908 37.4225 87.376 37.4082C87.1611 37.401 86.9821 37.3509 86.8389 37.2578C86.7028 37.1719 86.599 37.0322 86.5273 36.8389C86.4557 36.6383 86.4199 36.3626 86.4199 36.0117C86.4199 35.8327 86.4199 35.5212 86.4199 35.0771C86.4271 34.6331 86.4307 34.1068 86.4307 33.498C86.4378 32.8822 86.445 32.2126 86.4521 31.4893C86.4593 30.7588 86.4665 30.0212 86.4736 29.2764C86.4808 28.5316 86.488 27.8047 86.4951 27.0957C86.5023 26.3796 86.5094 25.7314 86.5166 25.1514C86.5238 24.5713 86.5309 24.0843 86.5381 23.6904C86.5452 23.2894 86.5524 23.0316 86.5596 22.917C86.5667 22.7881 86.5381 22.6807 86.4736 22.5947C86.4163 22.5088 86.334 22.4408 86.2266 22.3906C86.1263 22.3333 86.0046 22.2939 85.8613 22.2725C85.7181 22.251 85.5677 22.2402 85.4102 22.2402C85.1595 22.2402 84.8874 22.2653 84.5938 22.3154C84.3073 22.3584 84.0352 22.4121 83.7773 22.4766C84.1354 22.2474 84.4899 22.0326 84.8408 21.832C85.1989 21.6243 85.557 21.4453 85.915 21.2949C86.2731 21.1445 86.6383 21.0264 87.0107 20.9404C87.3831 20.8545 87.7663 20.8115 88.1602 20.8115C88.3177 20.8115 88.4681 20.8223 88.6113 20.8438C88.7546 20.8581 88.8799 20.8867 88.9873 20.9297C89.1019 20.9655 89.1914 21.0192 89.2559 21.0908C89.3203 21.1553 89.3525 21.2376 89.3525 21.3379C89.3525 21.61 89.349 22.2832 89.3418 23.3574C89.3418 23.8158 89.3382 24.3851 89.3311 25.0654C89.3311 25.7458 89.3275 26.5693 89.3203 27.5361C89.3203 28.4958 89.3167 29.613 89.3096 30.8877C89.3096 32.1553 89.3096 33.6126 89.3096 35.2598C89.682 35.3242 90.0221 35.3708 90.3301 35.3994C90.6452 35.4281 90.9281 35.4424 91.1787 35.4424C91.4007 35.4424 91.5941 35.4352 91.7588 35.4209C91.9235 35.4066 92.0632 35.3923 92.1777 35.3779C92.3066 35.3564 92.4212 35.3314 92.5215 35.3027ZM129.077 26.9238C128.526 27.4108 127.888 27.8333 127.165 28.1914C126.449 28.5423 125.658 28.8324 124.791 29.0615C124.934 29.3695 125.031 29.6774 125.081 29.9854C125.138 30.2861 125.167 30.5654 125.167 30.8232C125.167 31.0094 125.156 31.1813 125.135 31.3389C125.12 31.4893 125.103 31.6217 125.081 31.7363C125.052 31.8652 125.024 31.9834 124.995 32.0908C124.522 32.8857 123.96 33.6198 123.309 34.293C122.664 34.959 121.948 35.5391 121.16 36.0332C120.372 36.5202 119.52 36.8997 118.604 37.1719C117.694 37.4512 116.742 37.5908 115.746 37.5908C115.338 37.5908 114.912 37.5622 114.468 37.5049C114.024 37.4476 113.583 37.3545 113.146 37.2256C112.717 37.1038 112.305 36.9427 111.911 36.7422C111.517 36.5417 111.17 36.2982 110.869 36.0117C110.576 35.7253 110.339 35.3923 110.16 35.0127C109.988 34.6331 109.902 34.2035 109.902 33.7236C109.902 33.1722 110.017 32.6494 110.246 32.1553C110.482 31.6611 110.794 31.2028 111.181 30.7803C111.567 30.3506 112.008 29.9674 112.502 29.6309C112.996 29.2871 113.501 28.9935 114.017 28.75C113.744 28.6354 113.49 28.4958 113.254 28.3311C113.025 28.1663 112.824 27.9801 112.652 27.7725C112.488 27.5576 112.355 27.3177 112.255 27.0527C112.162 26.7878 112.115 26.4941 112.115 26.1719C112.115 25.7493 112.18 25.359 112.309 25.001C112.445 24.6429 112.624 24.3171 112.846 24.0234C113.075 23.7227 113.336 23.4469 113.63 23.1963C113.924 22.9456 114.235 22.7165 114.564 22.5088C114.894 22.3011 115.23 22.1077 115.574 21.9287C115.918 21.7497 116.247 21.5814 116.562 21.4238C116.906 21.2448 117.254 21.1016 117.604 20.9941C117.955 20.8796 118.296 20.79 118.625 20.7256C118.962 20.6611 119.277 20.6182 119.57 20.5967C119.871 20.5752 120.143 20.5645 120.387 20.5645C120.487 20.5645 120.619 20.5752 120.784 20.5967C120.949 20.611 121.117 20.6361 121.289 20.6719C121.468 20.7005 121.633 20.7435 121.783 20.8008C121.941 20.8509 122.062 20.9154 122.148 20.9941C122.242 21.0658 122.285 21.1517 122.277 21.252C122.277 21.3451 122.206 21.4525 122.062 21.5742C121.941 21.6745 121.765 21.7998 121.536 21.9502C121.343 22.0791 121.081 22.2474 120.752 22.4551C120.423 22.6628 120.004 22.9134 119.495 23.207C119.638 23.0208 119.667 22.8561 119.581 22.7129C119.502 22.5625 119.348 22.4372 119.119 22.3369C118.897 22.2295 118.625 22.1507 118.303 22.1006C117.988 22.0433 117.665 22.0146 117.336 22.0146C117.15 22.0146 116.964 22.0254 116.777 22.0469C116.598 22.0612 116.426 22.0898 116.262 22.1328C116.104 22.1686 115.961 22.2152 115.832 22.2725C115.703 22.3298 115.596 22.3978 115.51 22.4766C115.324 22.6556 115.18 22.8955 115.08 23.1963C114.987 23.4971 114.94 23.8301 114.94 24.1953C114.94 24.8327 115.055 25.3626 115.284 25.7852C115.513 26.2077 115.818 26.5479 116.197 26.8057C116.577 27.0635 117.014 27.2461 117.508 27.3535C118.002 27.4609 118.518 27.5146 119.055 27.5146C119.277 27.5146 119.502 27.5039 119.731 27.4824C119.961 27.4609 120.197 27.4215 120.44 27.3643C120.132 27.6149 119.803 27.8477 119.452 28.0625C119.108 28.2773 118.75 28.4671 118.378 28.6318C118.013 28.7894 117.637 28.9147 117.25 29.0078C116.87 29.1009 116.487 29.1475 116.101 29.1475C115.914 29.1475 115.725 29.1403 115.531 29.126C115.338 29.1117 115.148 29.083 114.962 29.04C114.69 29.0902 114.461 29.1439 114.274 29.2012C114.088 29.2513 113.934 29.2979 113.812 29.3408C113.676 29.3981 113.565 29.4518 113.479 29.502C113.372 29.5736 113.257 29.6917 113.136 29.8564C113.021 30.0212 112.914 30.2181 112.813 30.4473C112.72 30.6764 112.642 30.9307 112.577 31.21C112.52 31.4821 112.491 31.7614 112.491 32.0479C112.491 32.5348 112.595 32.9645 112.803 33.3369C113.01 33.7093 113.286 34.0352 113.63 34.3145C113.974 34.5866 114.364 34.8193 114.801 35.0127C115.245 35.1989 115.7 35.3493 116.165 35.4639C116.631 35.5785 117.089 35.6608 117.54 35.7109C117.991 35.7611 118.399 35.7861 118.765 35.7861C119.323 35.7861 119.85 35.7288 120.344 35.6143C120.845 35.4997 121.271 35.3171 121.622 35.0664C121.78 34.9518 121.919 34.8122 122.041 34.6475C122.17 34.4756 122.274 34.2894 122.353 34.0889C122.438 33.8812 122.503 33.6628 122.546 33.4336C122.589 33.1973 122.61 32.9574 122.61 32.7139C122.61 32.32 122.553 31.9261 122.438 31.5322C122.324 31.1383 122.148 30.7874 121.912 30.4795C121.676 30.1644 121.375 29.9102 121.01 29.7168C120.645 29.5234 120.211 29.4268 119.71 29.4268C119.603 29.4268 119.492 29.4339 119.377 29.4482C119.27 29.4626 119.155 29.4805 119.033 29.502C119.334 29.3229 119.642 29.126 119.957 28.9111C120.229 28.7249 120.523 28.5101 120.838 28.2666C121.153 28.0231 121.45 27.7581 121.729 27.4717C123.069 27.4717 124.204 27.4466 125.135 27.3965C126.066 27.3392 126.825 27.2747 127.412 27.2031C128.1 27.1243 128.655 27.0312 129.077 26.9238ZM152.012 34.9805C151.689 35.3027 151.339 35.5892 150.959 35.8398C150.579 36.0905 150.193 36.3125 149.799 36.5059C149.405 36.6921 149.007 36.8532 148.606 36.9893C148.213 37.1182 147.833 37.2292 147.468 37.3223C146.608 37.5371 145.745 37.6732 144.879 37.7305C143.654 37.7161 142.548 37.5299 141.56 37.1719C140.571 36.821 139.73 36.3232 139.035 35.6787C138.34 35.027 137.807 34.2393 137.435 33.3154C137.062 32.3844 136.876 31.3389 136.876 30.1787C136.876 29.2262 137.048 28.3418 137.392 27.5254C137.743 26.709 138.212 25.9678 138.799 25.3018C139.386 24.6286 140.066 24.0378 140.84 23.5293C141.613 23.0137 142.426 22.5804 143.278 22.2295C144.131 21.8786 144.993 21.6136 145.867 21.4346C146.748 21.2484 147.586 21.1553 148.381 21.1553C148.617 21.1553 148.871 21.1624 149.144 21.1768C149.423 21.1839 149.695 21.2018 149.96 21.2305C150.232 21.2591 150.486 21.3021 150.723 21.3594C150.966 21.4095 151.167 21.4811 151.324 21.5742C151.489 21.6673 151.604 21.7819 151.668 21.918C151.732 22.0469 151.722 22.2044 151.636 22.3906C151.528 22.4551 151.353 22.5697 151.109 22.7344C150.895 22.8776 150.59 23.0745 150.196 23.3252C149.81 23.5758 149.29 23.9089 148.639 24.3242C148.825 24.2025 148.961 24.0879 149.047 23.9805C149.133 23.873 149.176 23.7692 149.176 23.6689C149.176 23.5114 149.104 23.3717 148.961 23.25C148.825 23.1283 148.649 23.0244 148.435 22.9385C148.22 22.8525 147.98 22.7845 147.715 22.7344C147.45 22.6771 147.196 22.6341 146.952 22.6055C146.709 22.5697 146.487 22.5482 146.286 22.541C146.086 22.5267 145.939 22.5195 145.846 22.5195C143.755 22.5195 142.175 23.0531 141.108 24.1201C140.041 25.1872 139.508 26.7663 139.508 28.8574C139.508 29.9603 139.687 30.945 140.045 31.8115C140.403 32.6781 140.897 33.4229 141.527 34.0459C142.158 34.6618 142.906 35.1523 143.772 35.5176C144.639 35.8828 145.581 36.112 146.598 36.2051C147.163 36.2409 147.751 36.2194 148.359 36.1406C148.882 36.0762 149.462 35.958 150.1 35.7861C150.744 35.6143 151.382 35.3457 152.012 34.9805ZM171.627 28.5352C171.627 29.4948 171.462 30.3828 171.133 31.1992C170.811 32.0156 170.374 32.7604 169.822 33.4336C169.271 34.0996 168.633 34.6904 167.91 35.2061C167.187 35.7217 166.428 36.1549 165.633 36.5059C164.838 36.8568 164.029 37.1217 163.205 37.3008C162.389 37.4798 161.612 37.5693 160.874 37.5693C159.785 37.5693 158.79 37.3867 157.888 37.0215C156.993 36.6634 156.223 36.1621 155.578 35.5176C154.934 34.873 154.432 34.1068 154.074 33.2188C153.723 32.3307 153.548 31.3604 153.548 30.3076C153.548 29.3838 153.709 28.5137 154.031 27.6973C154.361 26.8737 154.801 26.1217 155.353 25.4414C155.911 24.7539 156.556 24.138 157.286 23.5938C158.024 23.0495 158.801 22.5911 159.617 22.2188C160.441 21.8392 161.279 21.5492 162.131 21.3486C162.99 21.1481 163.817 21.0479 164.612 21.0479C165.328 21.0479 165.998 21.141 166.621 21.3271C167.244 21.5062 167.813 21.764 168.329 22.1006C168.852 22.43 169.317 22.8275 169.726 23.293C170.134 23.7513 170.478 24.2598 170.757 24.8184C171.043 25.3698 171.258 25.9606 171.401 26.5908C171.552 27.221 171.627 27.8691 171.627 28.5352ZM161.948 22.4766C161.017 22.4766 160.204 22.6484 159.51 22.9922C158.822 23.3288 158.249 23.7871 157.791 24.3672C157.333 24.9473 156.989 25.624 156.76 26.3975C156.538 27.1637 156.427 27.9766 156.427 28.8359C156.427 29.9173 156.617 30.9092 156.996 31.8115C157.376 32.7139 157.895 33.4909 158.554 34.1426C159.22 34.7943 160.004 35.3027 160.906 35.668C161.809 36.026 162.786 36.2051 163.839 36.2051C164.412 36.2051 164.931 36.112 165.396 35.9258C165.862 35.7396 166.277 35.4889 166.643 35.1738C167.008 34.8516 167.323 34.4792 167.588 34.0566C167.86 33.627 168.082 33.1722 168.254 32.6924C168.426 32.2126 168.555 31.722 168.641 31.2207C168.727 30.7122 168.77 30.2181 168.77 29.7383C168.77 28.7285 168.605 27.7832 168.275 26.9023C167.946 26.0215 167.48 25.2552 166.879 24.6035C166.277 23.9447 165.558 23.4255 164.72 23.0459C163.882 22.6663 162.958 22.4766 161.948 22.4766ZM178.094 35.7646C177.814 35.9652 177.542 36.1585 177.277 36.3447C177.012 36.5309 176.762 36.6992 176.525 36.8496C176.296 36.9928 176.089 37.1074 175.902 37.1934C175.723 37.2865 175.58 37.333 175.473 37.333C175.387 37.3187 175.265 37.2721 175.107 37.1934C174.971 37.1217 174.792 37.0107 174.57 36.8604C174.355 36.7028 174.087 36.4772 173.765 36.1836L175.87 34.7119C176.207 34.9912 176.511 35.2061 176.783 35.3564C177.055 35.4997 177.288 35.5999 177.481 35.6572C177.711 35.736 177.915 35.7718 178.094 35.7646Z" fill="#293241"/>
</svg>
