<svg width="43" height="34" viewBox="0 0 43 34" fill="none" xmlns="http://www.w3.org/2000/svg">
<rect width="43" height="34" rx="3.5" fill="#B76E79"/>
<path fill-rule="evenodd" clip-rule="evenodd" d="M27.1965 20.8127L32.702 26.232C32.9026 26.4295 32.9026 26.7488 32.702 26.9462L32.2795 27.3621C32.0789 27.5596 31.7546 27.5596 31.554 27.3621L26.0484 21.9428C25.9545 21.8462 25.8991 21.7202 25.8991 21.5857V21.1572C24.3157 22.594 22.2031 23.4762 19.8771 23.4762C14.9734 23.4762 11 19.5651 11 14.7381C11 9.91114 14.9734 6 19.8771 6C24.7809 6 28.7543 9.91114 28.7543 14.7381C28.7543 17.0276 27.858 19.1071 26.3941 20.6657H26.8337C26.9703 20.6657 27.0983 20.7161 27.1965 20.8127ZM12.3657 14.7381C12.3657 18.8257 15.7245 22.1319 19.8771 22.1319C24.0297 22.1319 27.3885 18.8257 27.3885 14.7381C27.3885 10.6505 24.0297 7.34432 19.8771 7.34432C15.7245 7.34432 12.3657 10.6505 12.3657 14.7381Z" fill="white"/>
</svg>
